<svg xmlns="http://www.w3.org/2000/svg" fill="none" viewBox="0 0 124 52">
    <path fill="#ffffff" d="M62.884 15.382v21.845H58.8V15.382h4.084Zm12.98 0L67.19 26.035l-4.96 5.357-.728-4.007 3.445-4.516 5.91-7.486h5.006v-.001ZM71.32 37.227l-6.728-10.232 2.926-2.67 8.658 12.902H71.32Zm13.139.3c-1.218 0-2.312-.2-3.282-.6a7.2 7.2 0 0 1-2.48-1.665 7.666 7.666 0 0 1-1.56-2.505 8.804 8.804 0 0 1-.534-3.091v-.601c0-1.25.178-2.386.535-3.405.356-1.03.86-1.916 1.514-2.656A6.676 6.676 0 0 1 81 21.294c.91-.4 1.916-.6 3.014-.6 1.14 0 2.144.195 3.015.585.871.38 1.6.92 2.183 1.62.585.7 1.025 1.54 1.322 2.52.297.971.446 2.046.446 3.226v1.666H78.385v-2.73h8.732v-.301a4.83 4.83 0 0 0-.356-1.726 2.753 2.753 0 0 0-1.01-1.26c-.455-.32-1.045-.48-1.767-.48-.584 0-1.094.13-1.53.39-.425.25-.782.61-1.07 1.08-.276.46-.484 1.01-.623 1.65-.138.64-.208 1.351-.208 2.131v.6c0 .68.09 1.311.268 1.891.173.554.45 1.068.817 1.515.363.418.807.755 1.306.99.515.23 1.1.346 1.752.346.822 0 1.565-.16 2.228-.48a4.976 4.976 0 0 0 1.753-1.456l1.975 2.07c-.336.5-.792.98-1.366 1.441-.565.46-1.248.835-2.05 1.125-.802.28-1.728.42-2.777.42Zm16.214 0c-1.218 0-2.312-.2-3.282-.6a7.2 7.2 0 0 1-2.48-1.665 7.664 7.664 0 0 1-1.56-2.505 8.815 8.815 0 0 1-.534-3.091v-.601c0-1.25.178-2.386.534-3.405.357-1.03.862-1.916 1.515-2.656a6.666 6.666 0 0 1 2.347-1.71c.91-.4 1.916-.6 3.015-.6 1.138 0 2.143.195 3.014.585.872.38 1.599.92 2.184 1.62.583.7 1.024 1.54 1.321 2.52.297.971.446 2.046.446 3.226v1.666H94.599v-2.73h8.733v-.301a4.824 4.824 0 0 0-.357-1.726 2.754 2.754 0 0 0-1.01-1.26c-.455-.32-1.044-.48-1.767-.48-.585 0-1.094.13-1.53.39-.426.25-.782.61-1.07 1.08-.276.46-.484 1.01-.623 1.65-.139.64-.208 1.351-.208 2.131v.6c0 .68.09 1.311.267 1.891.189.58.46 1.085.817 1.515.364.418.809.755 1.307.99.515.23 1.099.346 1.753.346.821 0 1.564-.16 2.228-.48a4.978 4.978 0 0 0 1.752-1.456l1.975 2.07c-.337.5-.792.98-1.366 1.441-.565.46-1.248.835-2.05 1.125-.802.28-1.727.42-2.777.42Zm12.917-13.413V43.47h-3.936V20.993h3.639l.297 3.12v.001Zm10.322 4.831v.316c0 1.18-.139 2.275-.416 3.285-.268 1-.664 1.876-1.188 2.626a5.664 5.664 0 0 1-1.961 1.74c-.772.41-1.663.615-2.673.615-.99 0-1.852-.19-2.584-.57a5.336 5.336 0 0 1-1.857-1.65c-.504-.71-.91-1.535-1.217-2.476-.297-.95-.52-1.986-.669-3.105V28.72c.149-1.19.372-2.27.669-3.24.307-.98.713-1.826 1.217-2.536a5.323 5.323 0 0 1 1.842-1.666c.733-.39 1.589-.585 2.569-.585 1.02 0 1.916.195 2.688.585.784.39 1.461.968 1.976 1.68.534.731.935 1.601 1.202 2.612.268 1.01.402 2.135.402 3.375Zm-3.936.316v-.316c0-.72-.065-1.385-.193-1.995a5.399 5.399 0 0 0-.594-1.62 2.974 2.974 0 0 0-1.04-1.096c-.426-.26-.941-.39-1.544-.39-.604 0-1.124.1-1.559.3-.423.19-.791.484-1.07.856-.277.37-.495.81-.654 1.32a8.177 8.177 0 0 0-.296 1.665v2.49c.089.741.262 1.406.519 1.996a3.31 3.31 0 0 0 1.129 1.41c.505.35 1.158.526 1.961.526.603 0 1.118-.135 1.544-.405.426-.27.772-.64 1.039-1.11.268-.48.461-1.03.58-1.651.119-.62.178-1.28.178-1.98Z"/>
    <path fill="#FFBA00" d="M33.925 52H3.509C1.568 52 0 50.416 0 48.455V3.545C0 1.584 1.568 0 3.51 0h21.056l12.868 13v35.455c0 1.961-1.568 3.545-3.51 3.545Z"/>
    <path fill="#FF9500" d="m24.566 0 12.868 13H24.566V0Z"/>
    <path fill="#ffffff" d="M22.811 34.864h-8.188v2.954h8.188v-2.954Zm-4.094-17.137c-4.2 0-7.604 3.44-7.604 7.682a7.674 7.674 0 0 0 3.556 6.5h8.072a7.687 7.687 0 0 0 3.556-6.5c0-4.243-3.404-7.682-7.603-7.682h.023Z"/>
</svg>
